<?xml version="1.0" encoding="UTF-8" standalone="no"?><!DOCTYPE svg PUBLIC "-//W3C//DTD SVG 1.1//EN" "http://www.w3.org/Graphics/SVG/1.1/DTD/svg11.dtd"><svg width="100%" height="100%" viewBox="0 0 1067 1067" version="1.1" xmlns="http://www.w3.org/2000/svg" xmlns:xlink="http://www.w3.org/1999/xlink" xml:space="preserve" xmlns:serif="http://www.serif.com/" style="fill-rule:evenodd;clip-rule:evenodd;stroke-linejoin:round;"><path d="M1066.667,133.333l0,800c0,73.589 -59.745,133.333 -133.333,133.333l-800,0c-73.589,0 -133.333,-59.745 -133.333,-133.333l0,-800c0,-73.589 59.745,-133.333 133.333,-133.333l800,0c73.589,0 133.333,59.745 133.333,133.333Z" style="fill:url(#_Linear1);"/><path d="M533.333,133.333l283.333,166.667l0,333.333l-283.333,166.667l-283.333,-166.667l0,-333.333l283.333,-166.667Z" style="fill:none;fill-rule:nonzero;stroke:url(#_Linear2);stroke-width:33.33px;"/><path d="M533.333,250l200,116.667l0,200l-200,116.667l-200,-116.667l0,-200l200,-116.667Z" style="fill:none;fill-rule:nonzero;stroke:#1e293b;stroke-width:25px;"/><path d="M533.333,358.333l133.333,75l0,66.667l-133.333,75l-133.333,-75l0,-66.667l133.333,-75Z" style="fill:none;fill-rule:nonzero;stroke:#1e293b;stroke-width:16.67px;"/><path d="M400,700l0,-233.333l83.333,116.667l50,-66.667l50,66.667l83.333,-116.667l0,233.333" style="fill:none;fill-rule:nonzero;stroke:url(#_Linear3);stroke-width:33.33px;stroke-linecap:round;"/><circle cx="816.667" cy="300" r="20.833" style="fill:#38bdf8;"/><circle cx="816.667" cy="633.333" r="20.833" style="fill:#22c55e;"/><circle cx="250" cy="300" r="20.833" style="fill:#38bdf8;"/><circle cx="250" cy="633.333" r="20.833" style="fill:#22c55e;"/><g><path d="M414.903,962.68c0,1.264 -0.632,1.895 -1.895,1.895c-0.91,0 -2.287,-0.076 -4.132,-0.227c-1.845,-0.152 -3.222,-0.227 -4.132,-0.227c-0.91,0 -2.3,0.076 -4.17,0.227c-1.87,0.152 -3.26,0.227 -4.17,0.227c-1.264,0 -1.895,-0.834 -1.895,-2.502c0,-6.419 0.202,-16.047 0.607,-28.885c0.404,-12.838 0.607,-22.466 0.607,-28.885c0,-0.96 -0.202,-1.44 -0.607,-1.44c-0.455,0 -0.809,0.278 -1.061,0.834c-2.578,5.509 -8.668,20.217 -18.271,44.124c-1.567,4.599 -3.816,10.336 -6.747,17.21c-0.354,0.657 -2.173,0.986 -5.459,0.986c-4.751,0 -7.379,-0.43 -7.885,-1.289c-1.718,-4.094 -4.17,-9.831 -7.354,-17.21c-4.195,-10.007 -10.639,-24.918 -19.333,-44.73c-0.152,-0.354 -0.48,-0.708 -0.986,-1.061c-0.404,0.303 -0.607,0.859 -0.607,1.668c0,6.52 0.114,16.3 0.341,29.34c0.227,13.04 0.341,22.82 0.341,29.34c0,1.668 -0.632,2.502 -1.895,2.502c-0.859,0 -2.173,-0.076 -3.942,-0.227c-1.769,-0.152 -3.083,-0.227 -3.942,-0.227c-0.91,0 -2.262,0.076 -4.056,0.227c-1.794,0.152 -3.146,0.227 -4.056,0.227c-1.264,0 -1.895,-0.48 -1.895,-1.44c0,-5.61 0.265,-14.013 0.796,-25.208c0.531,-11.195 0.796,-19.598 0.796,-25.208c0,-5.812 -0.265,-14.544 -0.796,-26.194c-0.531,-11.65 -0.796,-20.381 -0.796,-26.194c0,-0.96 0.581,-1.516 1.744,-1.668c6.874,-0.91 12.054,-1.365 15.542,-1.365c0.505,0 1.213,1.036 2.123,3.108c12.231,26.889 22.744,50.897 31.539,72.023c2.072,4.953 3.311,7.43 3.715,7.43c0.505,0 1.592,-2.022 3.26,-6.065c6.874,-16.376 16.401,-40.687 28.582,-72.933c0.758,-1.971 1.592,-2.957 2.502,-2.957c1.718,0 4.309,0.101 7.771,0.303c3.462,0.202 6.052,0.303 7.771,0.303c1.264,0 1.895,0.607 1.895,1.82c0,5.812 -0.19,14.544 -0.569,26.194c-0.379,11.65 -0.569,20.381 -0.569,26.194c0,5.56 0.215,13.899 0.644,25.019c0.43,11.119 0.644,19.434 0.644,24.943Z" style="fill:#e5e7eb;fill-rule:nonzero;"/><path d="M527.863,963.665c0,0.607 -0.607,0.91 -1.82,0.91c-0.96,0 -2.363,-0.076 -4.208,-0.227c-1.845,-0.152 -3.247,-0.227 -4.208,-0.227c-0.96,0 -2.401,0.076 -4.321,0.227c-1.921,0.152 -3.361,0.227 -4.321,0.227c-1.415,0 -3.222,-3.829 -5.421,-11.486c-2.199,-7.657 -4.435,-11.536 -6.71,-11.637c-1.87,-0.101 -6.747,-0.152 -14.632,-0.152l-11.979,0c-8.34,0 -13.091,0.051 -14.253,0.152c-1.82,0.152 -3.753,4.043 -5.8,11.675c-2.047,7.632 -3.626,11.448 -4.738,11.448l-17.058,0c-1.011,0 -1.516,-0.354 -1.516,-1.061c0,-0.505 0.354,-1.643 1.061,-3.412l18.574,-50.795c1.567,-4.094 6.318,-15.896 14.253,-35.405c1.415,-3.235 3.336,-8.112 5.762,-14.632c0.607,-1.921 1.264,-2.881 1.971,-2.881c0.96,0 2.376,0.126 4.246,0.379c1.87,0.253 3.285,0.379 4.246,0.379c0.91,0 2.287,-0.139 4.132,-0.417c1.845,-0.278 3.197,-0.417 4.056,-0.417c0.455,0 1.087,0.935 1.895,2.805c1.213,2.83 7.202,18.069 17.968,45.716c15.213,38.867 22.82,58.478 22.82,58.832Zm-35.329,-41.849c0,-1.466 -2.274,-8.036 -6.823,-19.712c-4.397,-11.322 -7.506,-18.751 -9.325,-22.289c-10.462,26.687 -15.694,40.662 -15.694,41.925c0,1.718 1.921,2.729 5.762,3.033c0.202,0.051 2.679,0.076 7.43,0.076l7.809,0c7.228,0 10.841,-1.011 10.841,-3.033Z" style="fill:#e5e7eb;fill-rule:nonzero;"/><path d="M565.388,859.876c0,4.953 -0.19,12.396 -0.569,22.327c-0.379,9.932 -0.569,17.374 -0.569,22.327c0,2.426 0.025,6.015 0.076,10.766c0.051,4.751 0.076,8.314 0.076,10.69c0,11.069 -1.011,20.04 -3.033,26.914c-2.729,9.3 -7.607,16.755 -14.632,22.365c-0.96,0.758 -1.643,1.137 -2.047,1.137c-0.354,0 -0.758,-0.278 -1.213,-0.834c-3.589,-4.043 -7.127,-7.657 -10.614,-10.841c-0.455,-0.404 -0.682,-0.783 -0.682,-1.137c0,-0.404 0.278,-0.859 0.834,-1.365c3.437,-2.982 5.762,-5.206 6.975,-6.672c1.87,-2.426 3.285,-5.383 4.246,-8.87c1.264,-4.65 1.895,-14.228 1.895,-28.734l-0.076,-11.448c0,-4.751 -0.303,-12.408 -0.91,-22.972c-0.607,-10.159 -0.91,-17.816 -0.91,-22.972c0,-1.466 0.733,-2.199 2.199,-2.199c0.96,0 2.401,0.076 4.321,0.227c1.921,0.152 3.361,0.227 4.321,0.227c0.96,0 2.376,-0.076 4.246,-0.227c1.87,-0.152 3.26,-0.227 4.17,-0.227c1.264,0 1.895,0.505 1.895,1.516Z" style="fill:#e5e7eb;fill-rule:nonzero;"/><path d="M677.893,963.665c0,0.607 -0.607,0.91 -1.82,0.91c-0.96,0 -2.363,-0.076 -4.208,-0.227c-1.845,-0.152 -3.247,-0.227 -4.208,-0.227c-0.96,0 -2.401,0.076 -4.321,0.227c-1.921,0.152 -3.361,0.227 -4.321,0.227c-1.415,0 -3.222,-3.829 -5.421,-11.486c-2.199,-7.657 -4.435,-11.536 -6.71,-11.637c-1.87,-0.101 -6.747,-0.152 -14.632,-0.152l-11.979,0c-8.34,0 -13.091,0.051 -14.253,0.152c-1.82,0.152 -3.753,4.043 -5.8,11.675c-2.047,7.632 -3.626,11.448 -4.738,11.448l-17.058,0c-1.011,0 -1.516,-0.354 -1.516,-1.061c0,-0.505 0.354,-1.643 1.061,-3.412l18.574,-50.795c1.567,-4.094 6.318,-15.896 14.253,-35.405c1.415,-3.235 3.336,-8.112 5.762,-14.632c0.607,-1.921 1.264,-2.881 1.971,-2.881c0.96,0 2.376,0.126 4.246,0.379c1.87,0.253 3.285,0.379 4.246,0.379c0.91,0 2.287,-0.139 4.132,-0.417c1.845,-0.278 3.197,-0.417 4.056,-0.417c0.455,0 1.087,0.935 1.895,2.805c1.213,2.83 7.202,18.069 17.968,45.716c15.213,38.867 22.82,58.478 22.82,58.832Zm-35.329,-41.849c0,-1.466 -2.274,-8.036 -6.823,-19.712c-4.397,-11.322 -7.506,-18.751 -9.325,-22.289c-10.462,26.687 -15.694,40.662 -15.694,41.925c0,1.718 1.921,2.729 5.762,3.033c0.202,0.051 2.679,0.076 7.43,0.076l7.809,0c7.228,0 10.841,-1.011 10.841,-3.033Z" style="fill:#e5e7eb;fill-rule:nonzero;"/><path d="M761.058,948.124c0,7.076 -0.379,12.105 -1.137,15.087c-0.354,1.466 -1.238,2.199 -2.653,2.199c-3.74,0 -9.35,-0.215 -16.831,-0.644c-7.48,-0.43 -13.091,-0.644 -16.831,-0.644c-3.538,0 -8.82,0.076 -15.845,0.227c-7.025,0.152 -12.307,0.227 -15.845,0.227c-1.264,0 -1.895,-0.632 -1.895,-1.895c0,-5.509 0.19,-13.823 0.569,-24.943c0.379,-11.119 0.569,-19.459 0.569,-25.019c0,-5.863 -0.265,-14.645 -0.796,-26.345c-0.531,-11.701 -0.796,-20.482 -0.796,-26.345c0,-1.112 0.632,-1.668 1.895,-1.668c0.91,0 2.3,0.076 4.17,0.227c1.87,0.152 3.285,0.227 4.246,0.227c0.91,0 2.325,-0.076 4.246,-0.227c1.921,-0.152 3.336,-0.227 4.246,-0.227c1.213,0 1.82,0.48 1.82,1.44c0,5.358 -0.202,13.419 -0.607,24.185c-0.404,10.766 -0.607,18.852 -0.607,24.261l0,11.979c-0.051,5.358 -0.076,9.35 -0.076,11.979c0,11.22 0.455,16.831 1.365,16.831c18.65,0 32.726,-0.455 42.228,-1.365c0.455,-0.051 1.617,-0.227 3.487,-0.531c1.516,-0.303 2.679,-0.455 3.487,-0.455c1.061,0 1.592,0.48 1.592,1.44Z" style="fill:#e5e7eb;fill-rule:nonzero;"/></g><defs><linearGradient id="_Linear1" x1="0" y1="0" x2="1" y2="0" gradientUnits="userSpaceOnUse" gradientTransform="matrix(1066.666667,1066.666667,-1066.666667,1066.666667,0,0)"><stop offset="0" style="stop-color:#0f172a;stop-opacity:1"/><stop offset="1" style="stop-color:#020617;stop-opacity:1"/></linearGradient><linearGradient id="_Linear2" x1="0" y1="0" x2="1" y2="0" gradientUnits="userSpaceOnUse" gradientTransform="matrix(566.666667,666.666667,-666.666667,566.666667,250,133.333333)"><stop offset="0" style="stop-color:#38bdf8;stop-opacity:1"/><stop offset="1" style="stop-color:#22c55e;stop-opacity:1"/></linearGradient><linearGradient id="_Linear3" x1="0" y1="0" x2="1" y2="0" gradientUnits="userSpaceOnUse" gradientTransform="matrix(266.666667,233.333333,-233.333333,266.666667,400,466.666667)"><stop offset="0" style="stop-color:#38bdf8;stop-opacity:1"/><stop offset="1" style="stop-color:#22c55e;stop-opacity:1"/></linearGradient></defs></svg>